<svg xmlns="http://www.w3.org/2000/svg" width="24" height="24" viewBox="0 0 24 24" fill="none">
  <path fill-rule="evenodd" clip-rule="evenodd" d="M16.886 7.99894H20C21.104 7.99894 22 8.89594 22 9.99894V11.9989H2V9.99894C2 8.89594 2.897 7.99894 4 7.99894H7.114C6.663 7.76394 6.236 7.47694 5.879 7.12094C4.709 5.95094 4.709 4.04794 5.879 2.87894C7.012 1.74594 8.986 1.74594 10.121 2.87694C11.758 4.51394 11.979 7.59494 11.998 7.94094C11.9991 7.95244 11.9966 7.96273 11.9941 7.97298C11.992 7.98145 11.99 7.98989 11.99 7.99894H12.01C12.01 7.9898 12.0079 7.98128 12.0058 7.97281C12.0034 7.96276 12.0009 7.9528 12.002 7.94194C12.022 7.59594 12.242 4.51494 13.879 2.87794C15.014 1.74494 16.986 1.74594 18.121 2.87694C19.29 4.04894 19.29 5.95194 18.121 7.12094C17.764 7.47694 17.337 7.76394 16.886 7.99894ZM7.293 5.70694C6.903 5.31594 6.903 4.68194 7.293 4.29194C7.481 4.10294 7.732 3.99994 8 3.99994C8.268 3.99994 8.519 4.10294 8.707 4.29194C9.297 4.88194 9.641 5.93994 9.825 6.82194C8.945 6.63894 7.879 6.29294 7.293 5.70694ZM14.174 6.82394C14.359 5.94094 14.702 4.88294 15.293 4.29294C15.481 4.10294 15.732 3.99994 16 3.99994C16.268 3.99994 16.519 4.10294 16.706 4.29094C17.096 4.68194 17.097 5.31594 16.707 5.70694C16.116 6.29794 15.057 6.64194 14.174 6.82394ZM3 13.9989V19.9989C3 21.1019 3.897 21.9989 5 21.9989H11V13.9989H3ZM13 13.9989V21.9989H19C20.104 21.9989 21 21.1019 21 19.9989V13.9989H13Z" fill="#4F5660"/>
</svg>