<svg xmlns="http://www.w3.org/2000/svg" width="20" height="20" viewBox="0 0 20 20" fill="none">
  <path fill-rule="evenodd" clip-rule="evenodd" d="M12.4917 9.16663C12.4917 10.55 11.3833 11.6666 10 11.6666C8.61667 11.6666 7.50001 10.55 7.50001 9.16663V4.16663C7.50001 2.78329 8.61667 1.66663 10 1.66663C11.3833 1.66663 12.5 2.78329 12.5 4.16663L12.4917 9.16663ZM10 13.4166C12.3 13.4166 14.4167 11.6666 14.4167 9.16663H15.8333C15.8333 12.0166 13.5667 14.3666 10.8333 14.7666V17.5H9.16667V14.7666C6.43334 14.3583 4.16667 12.0083 4.16667 9.16663H5.58334C5.58334 11.6666 7.70001 13.4166 10 13.4166ZM10 3.33329C9.33334 3.33329 9.16667 3.88885 9.16667 4.16663V9.16663C9.16667 9.44438 9.33334 9.99996 10 9.99996C10.6667 9.99996 10.8333 9.44438 10.8333 9.16663V4.16663C10.8333 3.88885 10.6667 3.33329 10 3.33329Z" fill="#4F5660"/>
  <path fill-rule="evenodd" clip-rule="evenodd" d="M12.4917 9.16663C12.4917 10.55 11.3833 11.6666 10 11.6666C8.61667 11.6666 7.50001 10.55 7.50001 9.16663V4.16663C7.50001 2.78329 8.61667 1.66663 10 1.66663C11.3833 1.66663 12.5 2.78329 12.5 4.16663L12.4917 9.16663ZM10 13.4166C12.3 13.4166 14.4167 11.6666 14.4167 9.16663H15.8333C15.8333 12.0166 13.5667 14.3666 10.8333 14.7666V18.3333H9.16667V14.7666C6.43334 14.3583 4.16667 12.0083 4.16667 9.16663H5.58334C5.58334 11.6666 7.70001 13.4166 10 13.4166Z" fill="#4F5660"/>
</svg>