<svg xmlns="http://www.w3.org/2000/svg" width="18" height="18" viewBox="0 0 18 18" fill="none">
  <path fill-rule="evenodd" clip-rule="evenodd" d="M3.60091 7.20297C3.60091 5.20983 5.20983 3.60091 7.20297 3.60091C9.19611 3.60091 10.805 5.20983 10.805 7.20297C10.805 9.19611 9.19611 10.805 7.20297 10.805C5.20983 10.805 3.60091 9.19611 3.60091 7.20297ZM12.0057 10.805H11.3734L11.1492 10.5889C11.9337 9.67639 12.4059 8.49171 12.4059 7.20297C12.4059 4.32933 10.0766 2 7.20297 2C4.32933 2 2 4.32933 2 7.20297C2 10.0766 4.32933 12.4059 7.20297 12.4059C8.49171 12.4059 9.67639 11.9337 10.5889 11.1492L10.805 11.3734V12.0057L14.8073 16L16 14.8073L12.2103 11.01L12.0057 10.805Z" fill="#747F8D"/>
</svg>