<svg xmlns="http://www.w3.org/2000/svg" width="20" height="20" viewBox="0 0 20 20" fill="none">
  <path fill-rule="evenodd" clip-rule="evenodd" d="M16.4483 8.33329H18.3333V11.6666H16.4492C16.2483 12.4425 15.9167 13.165 15.4708 13.8033L16.6667 15L15 16.6666L13.8042 15.47C13.1642 15.9158 12.4433 16.2483 11.6667 16.4483V18.3333H8.33332V16.4483C7.55749 16.2483 6.83582 15.9158 6.19666 15.47L4.99999 16.6666L3.33332 15L4.52999 13.8033C4.08416 13.1658 3.75166 12.4433 3.55166 11.6666H1.66666V8.33329H3.55166C3.75166 7.55663 4.08332 6.83496 4.52999 6.19663L3.33332 4.99996L4.99999 3.33329L6.19666 4.52996C6.83499 4.08329 7.55666 3.75163 8.33332 3.55163V1.66663H11.6667V3.55079C12.4433 3.75163 13.1642 4.08329 13.8042 4.52913L15 3.33246L16.6667 4.99913L15.47 6.19663C15.9158 6.83496 16.2483 7.55746 16.4483 8.33329ZM9.99999 13.3333C11.8409 13.3333 13.3333 11.8409 13.3333 9.99996C13.3333 8.15901 11.8409 6.66663 9.99999 6.66663C8.15904 6.66663 6.66666 8.15901 6.66666 9.99996C6.66666 11.8409 8.15904 13.3333 9.99999 13.3333Z" fill="#4F5660"/>
</svg>